<!-- Generated by IcoMoon.io -->
<svg version="1.1" xmlns="http://www.w3.org/2000/svg" width="32" height="32" viewBox="0 0 32 32">
<path d="M5.843 0c-3.237 0-5.843 2.606-5.843 5.843v20.314c0 3.237 2.606 5.843 5.843 5.843h11.010v-12.51h-3.308v-4.504h3.308v-3.848c0-3.023 1.955-5.799 6.457-5.799 1.823 0 3.171 0.175 3.171 0.175l-0.106 4.206c0 0-1.375-0.013-2.875-0.013-1.624 0-1.884 0.748-1.884 1.99v3.289h4.888l-0.213 4.504h-4.675v12.51h4.541c3.237 0 5.843-2.606 5.843-5.843v-20.314c0-3.237-2.606-5.843-5.843-5.843l-20.314-0z"></path>
</svg>
