<!-- Generated by IcoMoon.io -->
<svg version="1.1" xmlns="http://www.w3.org/2000/svg" width="32" height="32" viewBox="0 0 32 32">
<path d="M19.048 0.762h-15.238c-1.691 0-3.048 1.371-3.048 3.048v15.238h3.048v-15.238h15.238v-3.048zM25.143 6.857h-15.238c-1.691 0-3.048 1.371-3.048 3.048v15.238h3.048v-15.238h15.238v-3.048zM28.19 12.952h-12.19c-1.691 0-3.048 1.371-3.048 3.048v12.19c0 1.676 1.356 3.048 3.048 3.048h12.19c1.676 0 3.048-1.371 3.048-3.048v-12.19c0-1.676-1.371-3.048-3.048-3.048z"></path>
</svg>
