<!-- Generated by IcoMoon.io -->
<svg version="1.1" xmlns="http://www.w3.org/2000/svg" width="32" height="32" viewBox="0 0 32 32">
<path d="M16 32c-0.159 0-0.317-0.003-0.476-0.007l3.27-8.987h4.5c0.79 0 1.657-0.607 1.927-1.349l3.547-9.744c0.58-1.595-0.333-2.901-2.031-2.901h-6.243l-5.238 14.394h-0.002l-2.97 8.159c-7.045-1.675-12.285-8.008-12.285-15.566 0-7.34 4.942-13.524 11.68-15.409l-8.159 22.415 3.391 0 4.332-11.891h2.549l-4.332 11.891 3.39 0.001 4.037-11.094c0.581-1.595-0.333-2.901-2.029-2.901h-2.85l3.273-8.996c0.239-0.011 0.478-0.017 0.719-0.017 8.837 0 16 7.163 16 16s-7.163 16-16 16h0zM25.681 11.107h-2.548l-3.568 9.789h2.548l3.568-9.789z"></path>
</svg>
