<!-- Generated by IcoMoon.io -->
<svg version="1.1" xmlns="http://www.w3.org/2000/svg" width="32" height="32" viewBox="0 0 32 32">
<path d="M16 12.19c-0.754 0-1.49 0.224-2.116 0.643s-1.114 1.014-1.403 1.71c-0.288 0.696-0.363 1.462-0.216 2.201s0.51 1.418 1.043 1.95 1.212 0.895 1.951 1.042c0.739 0.147 1.505 0.071 2.201-0.217s1.291-0.777 1.71-1.403c0.419-0.627 0.642-1.363 0.642-2.117-0.001-1.010-0.403-1.979-1.117-2.694s-1.684-1.116-2.694-1.116zM24.908 9.261c-0.194-0.492-0.487-0.938-0.86-1.312s-0.82-0.667-1.312-0.861c-1.5-0.592-5.071-0.459-6.736-0.459s-5.232-0.138-6.736 0.459c-0.492 0.194-0.938 0.487-1.312 0.861s-0.667 0.82-0.861 1.312c-0.591 1.5-0.459 5.075-0.459 6.738s-0.132 5.234 0.462 6.739c0.194 0.492 0.487 0.938 0.861 1.312s0.82 0.667 1.312 0.86c1.5 0.592 5.071 0.459 6.736 0.459s5.231 0.138 6.736-0.459c0.492-0.194 0.938-0.487 1.312-0.86s0.667-0.82 0.86-1.312c0.596-1.5 0.459-5.075 0.459-6.738s0.137-5.233-0.459-6.738l-0.003-0.001zM16 21.857c-1.158 0-2.291-0.344-3.254-0.987s-1.714-1.558-2.157-2.629c-0.443-1.070-0.559-2.248-0.333-3.384s0.784-2.18 1.603-2.999c0.819-0.819 1.863-1.377 2.999-1.603s2.314-0.11 3.384 0.333c1.070 0.443 1.985 1.194 2.629 2.157s0.987 2.096 0.987 3.254c0.001 0.769-0.15 1.532-0.444 2.243s-0.725 1.357-1.27 1.901c-0.544 0.544-1.19 0.975-1.901 1.27s-1.473 0.445-2.243 0.444zM22.099 11.264c-0.27 0-0.535-0.080-0.76-0.23s-0.4-0.364-0.504-0.613-0.131-0.525-0.078-0.79c0.053-0.265 0.183-0.509 0.374-0.7s0.435-0.322 0.7-0.374c0.265-0.053 0.54-0.026 0.79 0.078s0.463 0.279 0.614 0.504 0.23 0.489 0.23 0.76c0.001 0.18-0.034 0.358-0.102 0.524s-0.169 0.317-0.295 0.444c-0.127 0.127-0.277 0.228-0.443 0.297s-0.344 0.105-0.523 0.105l-0.003-0.003zM28.571 0h-25.143c-0.909 0-1.781 0.361-2.424 1.004s-1.004 1.515-1.004 2.424v25.143c0 0.909 0.361 1.781 1.004 2.424s1.515 1.004 2.424 1.004h25.143c0.909 0 1.781-0.361 2.424-1.004s1.004-1.515 1.004-2.424v-25.143c0-0.909-0.361-1.781-1.004-2.424s-1.515-1.004-2.424-1.004zM27.349 20.714c-0.092 1.831-0.51 3.453-1.846 4.786s-2.957 1.759-4.786 1.846c-1.887 0.106-7.542 0.106-9.429 0-1.831-0.092-3.447-0.511-4.786-1.846s-1.759-2.959-1.846-4.786c-0.106-1.887-0.106-7.544 0-9.428 0.092-1.831 0.505-3.453 1.846-4.786s2.962-1.754 4.786-1.841c1.886-0.106 7.542-0.106 9.429 0 1.831 0.092 3.452 0.511 4.786 1.846s1.759 2.959 1.846 4.789c0.106 1.88 0.106 7.531 0 9.42z"></path>
</svg>
