<!-- Generated by IcoMoon.io -->
<svg version="1.1" xmlns="http://www.w3.org/2000/svg" width="55" height="32" viewBox="0 0 55 32">
<path d="M2.236 1.659h14.801c1.631 0 3.075 0.323 4.332 0.968 1.257 0.619 2.233 1.52 2.928 2.703 0.695 1.157 1.043 2.488 1.043 3.994v3.752c0 1.56-0.361 2.945-1.083 4.156-0.722 1.183-1.738 2.111-3.048 2.784-1.284 0.645-2.781 0.968-4.493 0.968h-8.945v8.917h-5.535v-28.243zM16.636 16.143c0.936 0 1.698-0.296 2.286-0.888 0.588-0.619 0.883-1.426 0.883-2.421v-3.268c0-0.941-0.267-1.681-0.802-2.219-0.508-0.565-1.19-0.847-2.046-0.847h-9.186v9.643h8.865z"></path>
<path d="M37.95 30.224c-2.059 0-3.877-0.444-5.455-1.331-1.551-0.888-2.754-2.138-3.61-3.752-0.856-1.641-1.284-3.524-1.284-5.649v-7.424c0-2.125 0.428-3.994 1.284-5.608 0.883-1.641 2.113-2.905 3.69-3.793 1.604-0.888 3.45-1.331 5.535-1.331h4.252c2.006 0 3.77 0.43 5.295 1.291s2.701 2.071 3.53 3.631c0.856 1.533 1.284 3.322 1.284 5.366h-5.455c0-1.614-0.428-2.905-1.284-3.873-0.856-0.995-1.979-1.493-3.369-1.493h-4.252c-1.498 0-2.701 0.565-3.61 1.695-0.909 1.103-1.364 2.555-1.364 4.357v6.94c0 1.802 0.441 3.268 1.324 4.398 0.883 1.103 2.046 1.654 3.49 1.654h4.332c1.417 0 2.567-0.551 3.45-1.654 0.909-1.103 1.364-2.555 1.364-4.357h5.455c0 2.179-0.428 4.102-1.284 5.77-0.856 1.641-2.059 2.918-3.61 3.833-1.551 0.888-3.343 1.331-5.375 1.331h-4.332z"></path>
</svg>
