<!-- Generated by IcoMoon.io -->
<svg version="1.1" xmlns="http://www.w3.org/2000/svg" width="149" height="32" viewBox="0 0 149 32">
<path d="M145.92 26.405h0.292v-1.916h0.689v-0.248h-1.67v0.248h0.69v1.916z"></path>
<path d="M147.46 24.647l0.58 1.758h0.288l0.58-1.758v1.758h0.241v-2.164h-0.35l-0.604 1.848-0.624-1.848h-0.401v2.164h0.291v-1.758z"></path>
<path d="M99.58 21.221v-8.947c0-1.825 0.847-3.132 2.654-3.132h11.149c0.068 0 0.134-0.068 0.134-0.135v-1.78c0-0.016-0.005-0.031-0.011-0.045h-13.632c-2.955 0.378-4.398 2.447-4.398 5.093v8.946c0 1.825-0.871 3.132-2.654 3.132h-11.774c-0.067 0-0.134 0.045-0.134 0.135v1.78c0 0.074 0.045 0.131 0.098 0.149h13.368c3.484-0.092 5.199-2.328 5.199-5.197z"></path>
<path d="M53.776 26.418h3.914c0.053-0.018 0.098-0.075 0.098-0.149v-5.702c0-1.825 1.026-3.087 2.52-3.087h16.124c3.635 0 5.397-2.253 5.397-5.206 0-2.646-1.442-4.715-4.398-5.093h-23.727c-0.007 0.015-0.018 0.027-0.018 0.045v1.78c0 0.090 0.045 0.135 0.134 0.135h21.253c1.806 0 2.654 1.307 2.654 3.132s-0.847 3.132-2.654 3.132h-16.815c-2.609 0-4.572 2.231-4.572 5.161v5.702c-0 0.073 0.031 0.13 0.091 0.148z"></path>
<path d="M113.452 24.354h21.409c0.066 0 0.11 0.045 0.11 0.090v1.825c0 0.090 0.068 0.135 0.134 0.135h3.859c0.068 0 0.133-0.045 0.133-0.135v-1.78c0-0.068 0.068-0.135 0.133-0.135h3.836c0.090 0 0.134-0.068 0.134-0.135v-1.803c0-0.068-0.044-0.135-0.134-0.135h-3.836c-0.065 0-0.133-0.068-0.133-0.135v-13.003c0-1.061-0.392-1.737-1.052-1.961h-1.116c-0.348 0.090-0.726 0.251-1.132 0.496l-23.059 14.31c-0.892 0.563-1.204 1.194-0.981 1.667 0.179 0.406 0.69 0.699 1.695 0.699zM116.796 21.965l17.862-11.11c0.113-0.090 0.336-0.067 0.336 0.18v11.11c0 0.068-0.068 0.135-0.134 0.135h-17.954c-0.155 0-0.223-0.044-0.244-0.090-0.024-0.090 0.020-0.158 0.134-0.226z"></path>
<path d="M14.957 0c1.739 0.326 3.449 0.792 5.151 1.277 0.973 0.284 1.944 0.578 2.908 0.891 1.515 0.485 3.023 1.034 4.395 1.853 0.615 0.375 1.205 0.799 1.709 1.316 0.547 0.537 0.994 1.174 1.323 1.867 0.598 1.256 0.803 2.659 0.864 4.039 0.029 0.9 0.027 1.808-0.141 2.697-0.139 0.772-0.386 1.534-0.797 2.204-0.363 0.592-0.867 1.105-1.48 1.435-0.587 0.318-1.26 0.47-1.926 0.456-1.010 0.011-1.99-0.313-2.897-0.738-0.017-3.030-0.003-6.061-0.007-9.091-0.006-0.548 0.031-1.102-0.079-1.643-0.078-0.419-0.247-0.841-0.575-1.126-0.217-0.197-0.498-0.308-0.781-0.368-0.286-0.055-0.591 0.067-0.768 0.298-0.294 0.37-0.371 0.86-0.385 1.32-0.002 8.113 0.003 16.226-0.002 24.338-2.171-0.692-4.343-1.384-6.514-2.078-0.002-9.649-0.001-19.298 0-28.948z"></path>
<path d="M5.198 20.53c2.831-1.007 5.658-2.025 8.49-3.029 0.004 1.117 0 2.234 0.002 3.352-0.002 0.152 0.008 0.304-0.011 0.455-2.238 0.797-4.472 1.609-6.708 2.412-0.31 0.118-0.628 0.251-0.867 0.489-0.111 0.112-0.202 0.277-0.141 0.436 0.077 0.188 0.268 0.291 0.444 0.368 0.491 0.201 1.027 0.229 1.549 0.253 0.583-0.009 1.168-0.053 1.738-0.18 0.386-0.076 0.757-0.207 1.124-0.346 0.956-0.348 1.911-0.698 2.868-1.042 0.007 0.945 0.001 1.89 0.003 2.837-0.003 0.189 0.009 0.379-0.010 0.567-1.175 0.212-2.365 0.356-3.559 0.375-2.405 0.055-4.817-0.32-7.101-1.075-0.749-0.218-1.494-0.509-2.12-0.987-0.344-0.268-0.653-0.605-0.809-1.020-0.131-0.351-0.122-0.757 0.042-1.095 0.158-0.338 0.433-0.605 0.737-0.813 0.702-0.487 1.477-0.859 2.261-1.191 0.677-0.29 1.378-0.515 2.068-0.768z"></path>
<path d="M27.974 19.257c0.642-0.075 1.288-0.092 1.934-0.115 2.123 0.008 4.257 0.273 6.288 0.914 0.398 0.122 0.784 0.28 1.181 0.407 0.708 0.26 1.416 0.575 1.983 1.087 0.34 0.312 0.634 0.732 0.638 1.212 0.020 0.391-0.156 0.766-0.408 1.054-0.48 0.541-1.114 0.913-1.751 1.237-0.678 0.347-1.407 0.572-2.117 0.836-4.339 1.566-8.678 3.132-13.016 4.699-0.001-1.222 0.001-2.443-0.001-3.664 0.006-0.049-0.020-0.134 0.048-0.147 3.301-1.18 6.602-2.364 9.903-3.549 0.446-0.168 0.927-0.289 1.306-0.593 0.155-0.122 0.307-0.317 0.231-0.527-0.079-0.184-0.269-0.285-0.443-0.361-0.494-0.197-1.032-0.235-1.558-0.25-0.823 0.006-1.653 0.107-2.435 0.373-2.351 0.828-4.698 1.667-7.050 2.492 0-1.312-0.001-2.623 0.001-3.934 1.701-0.6 3.478-0.964 5.267-1.171z"></path>
<path d="M37.619 28.294c0.513-0.064 1.050 0.167 1.357 0.585 0.336 0.432 0.397 1.055 0.16 1.548-0.24 0.512-0.787 0.87-1.354 0.852-0.522 0.012-1.027-0.294-1.284-0.746-0.232-0.398-0.26-0.908-0.080-1.332 0.202-0.489 0.678-0.846 1.201-0.906zM37.508 28.569c-0.287 0.066-0.548 0.241-0.72 0.481-0.206 0.283-0.284 0.658-0.206 1.001 0.066 0.319 0.266 0.603 0.537 0.779 0.417 0.275 1.001 0.26 1.399-0.042 0.411-0.292 0.607-0.853 0.465-1.338-0.087-0.328-0.321-0.608-0.615-0.771-0.261-0.139-0.573-0.179-0.86-0.11z"></path>
<path d="M37.152 28.921c0.268-0.002 0.536-0 0.804-0.001 0.151 0.002 0.318 0.038 0.426 0.155 0.108 0.122 0.117 0.301 0.087 0.454-0.017 0.101-0.106 0.161-0.17 0.232 0.056 0.050 0.128 0.097 0.141 0.178 0.031 0.156-0.002 0.319 0.048 0.471 0.031 0.054 0.063 0.108 0.065 0.172-0.111 0.003-0.222 0.001-0.333 0.003-0.075-0.177-0.019-0.376-0.066-0.558-0.018-0.074-0.095-0.121-0.168-0.118-0.181-0.007-0.363-0.002-0.543-0.002-0.003 0.226 0.006 0.453-0.006 0.679-0.094-0.002-0.189-0.002-0.284 0-0.005-0.556-0.002-1.11-0.002-1.665zM37.443 29.184c0 0.153 0 0.306 0 0.46 0.162 0.001 0.324 0.002 0.486 0.001 0.080-0.001 0.174-0.016 0.226-0.084 0.055-0.087 0.054-0.204 0.004-0.293-0.042-0.070-0.13-0.077-0.203-0.081-0.172-0.005-0.343-0.002-0.515-0.002z"></path>
</svg>
