<!-- Generated by IcoMoon.io -->
<svg version="1.1" xmlns="http://www.w3.org/2000/svg" width="32" height="32" viewBox="0 0 32 32">
<path fill="none" stroke-linejoin="miter" stroke-linecap="butt" stroke-miterlimit="4" stroke-width="0.9697" stroke="#000" d="M27.968 11.706l-0.018 0.2 0.128 0.154 3.29 3.941-3.418 4.094 0.018 0.2 0.458 5.206-5.049 1.201-2.636 4.66-4.742-2.133-4.741 2.147-2.635-4.659-5.049-1.202 0.475-5.42-3.418-4.095 3.418-4.11-0.017-0.199-0.458-5.22 5.049-1.187 2.636-4.661 4.741 2.133 4.741-2.133 2.636 4.675 5.049 1.202-0.458 5.206z"></path>
<path d="M13.165 21.839l-1.414-1.414c-0.566-0.566-1.131-0.566-1.697 0l-1.311 1.311 0.566 0.566 1.311-1.311c0.189-0.189 0.375-0.19 0.561-0.005l0.005 0.005-0.987 0.987c-0.473 0.473-0.478 0.941-0.015 1.404 0.48 0.48 0.957 0.483 1.43 0.010l1.553-1.553zM10.758 22.826c-0.093-0.093-0.091-0.187 0.005-0.283l0.987-0.987 0.283 0.283-0.987 0.987c-0.096 0.096-0.192 0.096-0.288 0zM16.019 18.984l-0.807 0.807-1.738 0.041-0.283 0.283 0.849 0.849-0.566 0.566-2.263-2.263 0.566-0.566 0.849 0.849 0.283-0.283 0.046-1.743 0.802-0.802-0.026 2.288 2.288-0.026zM15.609 14.868l1.697 1.697-0.849 0.849c-0.189 0.189-0.377 0.189-0.566 0l-1.414-1.414-0.566 0.566 1.414 1.414c0.566 0.566 1.131 0.566 1.697 0l1.131-1.131 0.566 0.566 0.591-0.591-1.131-1.131-0.309 0.309-1.697-1.697-0.566 0.566zM21.165 13.838l-0.566 0.566-0.242-0.242c-0.096 0.487-0.281 0.867-0.555 1.142-0.566 0.566-1.131 0.566-1.697 0l-1.466-1.466 0.566-0.566 1.466 1.466c0.185 0.185 0.374 0.185 0.566 0 0.329-0.425 0.432-0.888 0.309-1.389l-1.209-1.208 0.566-0.566 2.263 2.263zM19.931 11.987c-0.48-0.48-0.483-0.957-0.010-1.43l1.553-1.553 2.263 2.263-0.566 0.566-0.849-0.849-0.252 0.252 0.139 1.558-0.735 0.735-0.139-1.558c-0.473 0.473-0.941 0.478-1.404 0.015zM21.473 10.136l-0.987 0.987c-0.096 0.096-0.093 0.195 0.010 0.298 0.086 0.086 0.177 0.081 0.273-0.015l0.987-0.987-0.283-0.283z"></path>
</svg>
