<!-- Generated by IcoMoon.io -->
<svg version="1.1" xmlns="http://www.w3.org/2000/svg" width="36" height="32" viewBox="0 0 36 32">
<path d="M5.593 5.144c-0.138 0.102-0.215 0.263-0.215 0.429v0.007c0.001 0.070 0.015 0.141 0.044 0.209l2.454 5.734c0.109 0.254 0.389 0.379 0.643 0.286 1.607-0.591 7.17-2.461 10.771-1.452 0 0-3.612 0.216-6.878 2.857-0.184 0.149-0.245 0.409-0.151 0.629 0.265 0.618 0.797 1.86 1.099 2.562l0.423 1.024c0.101 0.243 0.422 0.272 0.564 0.052 0.762-1.184 2.047-1.775 3.281-2.291 1.264-0.528 2.584-0.923 3.93-1.157 1.434-0.25 2.899-0.317 4.348-0.185 0.241 0.022 0.465-0.131 0.537-0.369l1.109-3.654c0.065-0.216-0.010-0.452-0.188-0.585-1.236-0.924-6.133-4.026-14.743-2.78 0 0 7.348-4.354 16.676 0.429 0.283 0.145 0.624-0.007 0.718-0.317l0.977-3.223c0.015-0.050 0.023-0.101 0.023-0.15v-0.015c-0.003-0.183-0.098-0.358-0.26-0.452-1.171-0.683-5.135-2.731-10.587-2.731-4.179-0-9.233 1.202-14.575 5.144z"></path>
<path d="M10.304 31.533h-0.885c-0.067 0-0.131-0.027-0.178-0.076s-0.074-0.115-0.074-0.184v-5.29h-2.168c-0.139-0.001-0.251-0.117-0.251-0.261v-0.819c0-0.144 0.113-0.26 0.252-0.26h5.725c0.139 0 0.252 0.117 0.252 0.26v0.819c0 0.144-0.113 0.261-0.252 0.261h-2.169v5.29c0 0.069-0.027 0.135-0.074 0.184s-0.111 0.076-0.178 0.076zM6.166 31.033c0.324-0.335 0.457-0.762 0.457-1.472v-0.181c0-0.711-0.133-1.136-0.457-1.472-0.344-0.356-0.8-0.501-1.571-0.501h-2.803c-0.111 0-0.218-0.046-0.297-0.127s-0.123-0.192-0.123-0.307v-0.557c0-0.24 0.188-0.434 0.42-0.434h4.012c0.139 0 0.252-0.117 0.252-0.261v-0.819c0-0.144-0.113-0.26-0.252-0.26h-3.776c-0.772 0-1.227 0.145-1.572 0.501-0.325 0.335-0.457 0.762-0.457 1.472v0.143c0 0.712 0.132 1.137 0.457 1.472 0.344 0.356 0.8 0.501 1.572 0.501h2.813c0.232 0 0.42 0.194 0.42 0.434v0.595c0 0.24-0.188 0.434-0.42 0.434h-4.226c-0.139 0-0.252 0.117-0.252 0.26v0.819c0 0.069 0.027 0.135 0.074 0.184s0.111 0.076 0.178 0.076h3.98c0.771 0 1.226-0.145 1.57-0.5zM26.195 28.068v0.047c0 1.328-0.204 2.009-0.779 2.603-0.531 0.548-1.321 0.823-2.353 0.823h-3.054c-0.139 0-0.252-0.117-0.252-0.26v-6.378c0-0.144 0.113-0.26 0.252-0.26h3.055c1.033 0 1.824 0.277 2.353 0.823 0.575 0.594 0.777 1.276 0.777 2.604zM24.806 28.068c0-0.884-0.054-1.309-0.39-1.655-0.274-0.284-0.717-0.421-1.353-0.421h-1.917v4.2h1.918c0.637 0 1.079-0.138 1.353-0.421 0.335-0.346 0.39-0.772 0.39-1.655l-0.001-0.047zM28.448 31.272v-6.37c0-0.144-0.113-0.26-0.252-0.26h-0.884c-0.139 0-0.252 0.117-0.252 0.26v6.37c0 0.144 0.113 0.26 0.252 0.26h0.885c0.067 0 0.131-0.027 0.178-0.076s0.074-0.115 0.074-0.184h-0.001zM18.943 31.533h-0.936c-0.131-0-0.251-0.079-0.306-0.202l-0.431-0.963h-3.475l-0.431 0.964c-0.055 0.122-0.173 0.201-0.303 0.202h-0.941c-0.087 0-0.167-0.046-0.214-0.122s-0.051-0.171-0.014-0.252l2.843-6.117c0.149-0.314 0.457-0.514 0.796-0.514s0.648 0.199 0.796 0.514l2.843 6.116c0.038 0.081 0.033 0.176-0.013 0.252s-0.127 0.122-0.214 0.122h-0.001zM14.363 29.091h2.342l-1.168-2.753-1.173 2.753zM36.14 31.533h-0.938c-0.131 0-0.251-0.079-0.306-0.202l-0.43-0.963h-3.475l-0.431 0.964c-0.055 0.122-0.173 0.201-0.303 0.202h-0.941c-0.087 0-0.167-0.046-0.214-0.122s-0.051-0.171-0.014-0.252l2.843-6.117c0.148-0.315 0.457-0.514 0.796-0.514s0.648 0.2 0.796 0.514l2.843 6.116c0.038 0.081 0.033 0.176-0.013 0.252s-0.127 0.122-0.214 0.122v0zM31.558 29.091h2.342l-1.168-2.753-1.174 2.753z"></path>
</svg>
