<!-- Generated by IcoMoon.io -->
<svg version="1.1" xmlns="http://www.w3.org/2000/svg" width="32" height="32" viewBox="0 0 32 32">
<path d="M28.571 0h-25.143c-1.893 0-3.429 1.536-3.429 3.429v25.143c0 1.893 1.536 3.429 3.429 3.429h25.143c1.893 0 3.429-1.536 3.429-3.429v-25.143c0-1.893-1.536-3.429-3.429-3.429zM25.079 11.343c0.014 0.2 0.014 0.407 0.014 0.607 0 6.193-4.714 13.329-13.329 13.329-2.657 0-5.121-0.772-7.193-2.1 0.379 0.043 0.743 0.057 1.129 0.057 2.193 0 4.207-0.743 5.814-2-2.057-0.043-3.786-1.393-4.379-3.25 0.721 0.107 1.371 0.107 2.114-0.086-2.143-0.436-3.75-2.321-3.75-4.6v-0.057c0.621 0.35 1.35 0.564 2.114 0.593-0.643-0.427-1.169-1.007-1.533-1.688s-0.554-1.441-0.552-2.212c0-0.871 0.229-1.671 0.636-2.364 2.307 2.843 5.771 4.7 9.657 4.9-0.664-3.179 1.714-5.757 4.571-5.757 1.35 0 2.564 0.564 3.421 1.479 1.057-0.2 2.071-0.593 2.971-1.129-0.35 1.086-1.086 2-2.057 2.579 0.943-0.1 1.857-0.364 2.7-0.729-0.636 0.936-1.436 1.764-2.35 2.429z"></path>
</svg>
