<!-- Generated by IcoMoon.io -->
<svg version="1.1" xmlns="http://www.w3.org/2000/svg" width="158" height="32" viewBox="0 0 158 32">
<path d="M101.227 25.52l-6.039-8.134-6.033 8.134h-2.486l7.261-9.828-6.631-8.934h2.485l5.404 7.286 5.403-7.286h2.484l-6.627 8.932 7.262 9.83h-2.484zM54.165 25.517l-7.269-9.826 6.631-8.932h-2.485l-5.405 7.288-5.4-7.288h-2.479l6.628 8.932-7.267 9.826h2.489l6.033-8.131 6.038 8.131h2.487z"></path>
<path d="M67.986 16.401c-0.374-0.317-0.792-0.58-1.239-0.783 0.687-0.362 1.262-0.903 1.662-1.565s0.612-1.42 0.611-2.192c0-1.2-0.446-5.104-6.145-5.104h-7.677v8.088h-2.557c-0.331 0.429-1.085 1.46-1.372 1.883h3.929v8.789l7.678 0.002c4.159 0 6.742-2.095 6.742-5.477 0-1.477-0.562-2.731-1.632-3.64zM57.32 8.715h5.556c1.503 0 4.021 0.372 4.021 2.981 0 1.973-1.466 3.149-4.021 3.149h-5.556v-6.13zM62.874 23.561h-5.556v-6.829h5.556c2.106 0 4.626 0.577 4.626 3.267 0 3.098-2.898 3.561-4.626 3.561zM79.604 6.326c-5.31 0-9.022 4.030-9.022 9.802 0 5.78 3.711 9.807 9.022 9.807 5.305 0 9.007-4.027 9.007-9.807 0-5.772-3.702-9.802-9.007-9.802zM79.604 23.95c-4.046 0-6.881-3.218-6.881-7.822s2.835-7.82 6.881-7.82c4.040 0 6.858 3.216 6.858 7.82s-2.818 7.822-6.858 7.822zM4.708 4.751l-0.015 0.013v0.002c-1.487 1.453-2.667 3.185-3.472 5.095s-1.218 3.961-1.215 6.032c-0.005 3.423 1.127 6.752 3.221 9.473 0.022 0.026 0.055 0.041 0.084 0.026 0.028-0.016 0.030-0.051 0.018-0.081-1.201-3.687 4.939-12.622 8.112-16.367 0.010-0.013 0.023-0.028 0.023-0.046 0-0.021-0.015-0.038-0.030-0.051-5.337-5.272-6.762-4.066-6.742-4.083l0.015-0.013zM26.821 4.751l0.015 0.013v0.002c1.487 1.453 2.667 3.185 3.471 5.096s1.217 3.961 1.214 6.032c0.005 3.423-1.127 6.752-3.221 9.473-0.020 0.026-0.055 0.041-0.084 0.026-0.027-0.016-0.028-0.051-0.018-0.081 1.201-3.687-4.934-12.628-8.106-16.376-0.012-0.013-0.023-0.028-0.023-0.044 0-0.023 0.013-0.039 0.030-0.053 5.339-5.272 6.754-4.058 6.735-4.075l-0.013-0.013zM15.765 0.253c3.18 0 5.796 0.865 8.208 2.289 0.030 0.015 0.038 0.048 0.026 0.077-0.012 0.028-0.045 0.035-0.076 0.026-3.050-0.654-7.688 1.962-8.126 2.223-0.010 0.007-0.020 0.013-0.033 0.013-0.015 0-0.025-0.007-0.035-0.013-1.163-0.663-5.45-2.892-8.149-2.207-0.030 0.007-0.063 0.002-0.076-0.028-0.006-0.014-0.006-0.029-0.001-0.044s0.015-0.026 0.028-0.034c2.412-1.439 5.062-2.304 8.233-2.304zM15.765 12.796c0.018 0 0.038 0.015 0.050 0.025 4.716 3.558 12.786 12.355 10.323 14.843l0.003-0.003-0.002 0.003h-0.003c-2.868 2.498-6.556 3.874-10.372 3.869-3.817 0.005-7.505-1.371-10.374-3.869v0c-2.459-2.488 5.61-11.285 10.321-14.843 0.013-0.010 0.035-0.025 0.055-0.025zM140.398 6.758v15.396l-11.428-15.407-1.874-0.003v18.745h2.104v-15.055l11.195 15.067 2.109 0.003v-18.745h-2.106zM116.172 6.323c-5.311 0-9.024 4.032-9.024 9.802 0 5.78 3.713 9.813 9.024 9.813 5.305 0 9.006-4.034 9.006-9.813 0-5.768-3.701-9.802-9.006-9.802zM116.172 23.95c-4.046 0-6.882-3.218-6.882-7.825 0-4.602 2.836-7.82 6.882-7.82 4.039 0 6.858 3.218 6.858 7.82 0 4.607-2.819 7.825-6.858 7.825zM146.982 23.668v-6.936h10.401v-1.835h-10.401v-6.319h11.107v-1.833h-13.222v18.758h13.353v-1.835h-11.237z"></path>
</svg>
