<!-- Generated by IcoMoon.io -->
<svg version="1.1" xmlns="http://www.w3.org/2000/svg" width="32" height="32" viewBox="0 0 32 32">
<path d="M25.235 23.876h-1.648l0.008-0.964c0-0.429 0.349-0.779 0.776-0.779h0.105c0.428 0 0.778 0.351 0.778 0.779l-0.019 0.964zM19.055 21.809c-0.418 0-0.76 0.283-0.76 0.63v4.691c0 0.346 0.342 0.628 0.76 0.628 0.42 0 0.762-0.282 0.762-0.628v-4.691c0-0.347-0.342-0.63-0.762-0.63zM29.091 19.185v8.923c0 2.14-1.842 3.892-4.093 3.892h-16.832c-2.252 0-4.093-1.751-4.093-3.892v-8.923c0-2.14 1.841-3.892 4.093-3.892h16.832c2.251 0 4.093 1.752 4.093 3.892zM9.289 29.077l-0.001-9.399 2.087 0.001v-1.393l-5.562-0.008v1.369l1.736 0.005v9.426h1.741zM15.543 21.078h-1.74v5.019c0 0.726 0.044 1.089-0.003 1.217-0.141 0.389-0.777 0.802-1.025 0.042-0.042-0.133-0.005-0.535-0.006-1.225l-0.007-5.054h-1.73l0.005 4.974c0.001 0.762-0.017 1.331 0.006 1.59 0.042 0.456 0.027 0.988 0.447 1.292 0.783 0.568 2.283-0.085 2.658-0.897l-0.003 1.036 1.397 0.002v-7.997h-0zM21.108 26.826l-0.004-4.177c-0.001-1.592-1.183-2.546-2.788-1.258l0.007-3.106-1.738 0.003-0.008 10.72 1.429-0.021 0.13-0.668c1.827 1.689 2.974 0.532 2.972-1.493zM26.553 26.272l-1.305 0.007c-0.001 0.052-0.002 0.112-0.003 0.178v0.733c0 0.392-0.322 0.712-0.713 0.712h-0.256c-0.392 0-0.713-0.32-0.713-0.712v-1.929h2.987v-1.133c0-0.828-0.021-1.656-0.089-2.129-0.214-1.497-2.299-1.735-3.353-0.968-0.331 0.239-0.583 0.56-0.73 0.99-0.148 0.431-0.222 1.019-0.222 1.766v2.491c0 4.141 4.991 3.556 4.396-0.006zM19.862 12.749c0.090 0.22 0.229 0.398 0.418 0.532 0.187 0.132 0.426 0.199 0.712 0.199 0.251 0 0.473-0.068 0.666-0.209s0.355-0.35 0.488-0.629l-0.033 0.688h1.939v-8.31h-1.526v6.468c0 0.35-0.286 0.637-0.636 0.637-0.348 0-0.635-0.287-0.635-0.637v-6.468h-1.593v5.605c0 0.714 0.013 1.19 0.034 1.431 0.022 0.24 0.077 0.47 0.166 0.692zM13.986 8.055c0-0.798 0.066-1.421 0.197-1.87 0.132-0.447 0.369-0.807 0.713-1.078 0.342-0.273 0.781-0.409 1.315-0.409 0.449 0 0.833 0.089 1.154 0.263 0.323 0.175 0.571 0.402 0.744 0.682 0.176 0.281 0.295 0.57 0.359 0.865 0.065 0.3 0.097 0.751 0.097 1.361v2.102c0 0.771-0.031 1.338-0.090 1.698-0.059 0.361-0.186 0.696-0.382 1.010-0.194 0.311-0.444 0.543-0.746 0.691-0.306 0.15-0.657 0.223-1.052 0.223-0.442 0-0.814-0.062-1.121-0.19s-0.546-0.32-0.715-0.576c-0.171-0.256-0.292-0.568-0.364-0.932s-0.108-0.91-0.108-1.638v-2.2h0zM15.504 11.356c0 0.471 0.348 0.855 0.771 0.855s0.77-0.384 0.77-0.855v-4.424c0-0.47-0.346-0.854-0.77-0.854s-0.771 0.384-0.771 0.854v4.424zM10.138 13.59h1.829l0.002-6.374 2.162-5.46h-2.001l-1.149 4.055-1.165-4.067h-1.98l2.3 5.474 0.003 6.371z"></path>
</svg>
