<svg aria-hidden="true" style="position: absolute; width: 0; height: 0; overflow: hidden;" version="1.1" xmlns="http://www.w3.org/2000/svg" xmlns:xlink="http://www.w3.org/1999/xlink">
<defs>
<symbol id="icon-playstation-logo" viewBox="0 0 149 32">
<path d="M145.92 26.405h0.292v-1.916h0.689v-0.248h-1.67v0.248h0.69v1.916z"></path>
<path d="M147.46 24.647l0.58 1.758h0.288l0.58-1.758v1.758h0.241v-2.164h-0.35l-0.604 1.848-0.624-1.848h-0.401v2.164h0.291v-1.758z"></path>
<path d="M99.58 21.221v-8.947c0-1.825 0.847-3.132 2.654-3.132h11.149c0.068 0 0.134-0.068 0.134-0.135v-1.78c0-0.016-0.005-0.031-0.011-0.045h-13.632c-2.955 0.378-4.398 2.447-4.398 5.093v8.946c0 1.825-0.871 3.132-2.654 3.132h-11.774c-0.067 0-0.134 0.045-0.134 0.135v1.78c0 0.074 0.045 0.131 0.098 0.149h13.368c3.484-0.092 5.199-2.328 5.199-5.197z"></path>
<path d="M53.776 26.418h3.914c0.053-0.018 0.098-0.075 0.098-0.149v-5.702c0-1.825 1.026-3.087 2.52-3.087h16.124c3.635 0 5.397-2.253 5.397-5.206 0-2.646-1.442-4.715-4.398-5.093h-23.727c-0.007 0.015-0.018 0.027-0.018 0.045v1.78c0 0.090 0.045 0.135 0.134 0.135h21.253c1.806 0 2.654 1.307 2.654 3.132s-0.847 3.132-2.654 3.132h-16.815c-2.609 0-4.572 2.231-4.572 5.161v5.702c-0 0.073 0.031 0.13 0.091 0.148z"></path>
<path d="M113.452 24.354h21.409c0.066 0 0.11 0.045 0.11 0.090v1.825c0 0.090 0.068 0.135 0.134 0.135h3.859c0.068 0 0.133-0.045 0.133-0.135v-1.78c0-0.068 0.068-0.135 0.133-0.135h3.836c0.090 0 0.134-0.068 0.134-0.135v-1.803c0-0.068-0.044-0.135-0.134-0.135h-3.836c-0.065 0-0.133-0.068-0.133-0.135v-13.003c0-1.061-0.392-1.737-1.052-1.961h-1.116c-0.348 0.090-0.726 0.251-1.132 0.496l-23.059 14.31c-0.892 0.563-1.204 1.194-0.981 1.667 0.179 0.406 0.69 0.699 1.695 0.699zM116.796 21.965l17.862-11.11c0.113-0.090 0.336-0.067 0.336 0.18v11.11c0 0.068-0.068 0.135-0.134 0.135h-17.954c-0.155 0-0.223-0.044-0.244-0.090-0.024-0.090 0.020-0.158 0.134-0.226z"></path>
<path d="M14.957 0c1.739 0.326 3.449 0.792 5.151 1.277 0.973 0.284 1.944 0.578 2.908 0.891 1.515 0.485 3.023 1.034 4.395 1.853 0.615 0.375 1.205 0.799 1.709 1.316 0.547 0.537 0.994 1.174 1.323 1.867 0.598 1.256 0.803 2.659 0.864 4.039 0.029 0.9 0.027 1.808-0.141 2.697-0.139 0.772-0.386 1.534-0.797 2.204-0.363 0.592-0.867 1.105-1.48 1.435-0.587 0.318-1.26 0.47-1.926 0.456-1.010 0.011-1.99-0.313-2.897-0.738-0.017-3.030-0.003-6.061-0.007-9.091-0.006-0.548 0.031-1.102-0.079-1.643-0.078-0.419-0.247-0.841-0.575-1.126-0.217-0.197-0.498-0.308-0.781-0.368-0.286-0.055-0.591 0.067-0.768 0.298-0.294 0.37-0.371 0.86-0.385 1.32-0.002 8.113 0.003 16.226-0.002 24.338-2.171-0.692-4.343-1.384-6.514-2.078-0.002-9.649-0.001-19.298 0-28.948z"></path>
<path d="M5.198 20.53c2.831-1.007 5.658-2.025 8.49-3.029 0.004 1.117 0 2.234 0.002 3.352-0.002 0.152 0.008 0.304-0.011 0.455-2.238 0.797-4.472 1.609-6.708 2.412-0.31 0.118-0.628 0.251-0.867 0.489-0.111 0.112-0.202 0.277-0.141 0.436 0.077 0.188 0.268 0.291 0.444 0.368 0.491 0.201 1.027 0.229 1.549 0.253 0.583-0.009 1.168-0.053 1.738-0.18 0.386-0.076 0.757-0.207 1.124-0.346 0.956-0.348 1.911-0.698 2.868-1.042 0.007 0.945 0.001 1.89 0.003 2.837-0.003 0.189 0.009 0.379-0.010 0.567-1.175 0.212-2.365 0.356-3.559 0.375-2.405 0.055-4.817-0.32-7.101-1.075-0.749-0.218-1.494-0.509-2.12-0.987-0.344-0.268-0.653-0.605-0.809-1.020-0.131-0.351-0.122-0.757 0.042-1.095 0.158-0.338 0.433-0.605 0.737-0.813 0.702-0.487 1.477-0.859 2.261-1.191 0.677-0.29 1.378-0.515 2.068-0.768z"></path>
<path d="M27.974 19.257c0.642-0.075 1.288-0.092 1.934-0.115 2.123 0.008 4.257 0.273 6.288 0.914 0.398 0.122 0.784 0.28 1.181 0.407 0.708 0.26 1.416 0.575 1.983 1.087 0.34 0.312 0.634 0.732 0.638 1.212 0.020 0.391-0.156 0.766-0.408 1.054-0.48 0.541-1.114 0.913-1.751 1.237-0.678 0.347-1.407 0.572-2.117 0.836-4.339 1.566-8.678 3.132-13.016 4.699-0.001-1.222 0.001-2.443-0.001-3.664 0.006-0.049-0.020-0.134 0.048-0.147 3.301-1.18 6.602-2.364 9.903-3.549 0.446-0.168 0.927-0.289 1.306-0.593 0.155-0.122 0.307-0.317 0.231-0.527-0.079-0.184-0.269-0.285-0.443-0.361-0.494-0.197-1.032-0.235-1.558-0.25-0.823 0.006-1.653 0.107-2.435 0.373-2.351 0.828-4.698 1.667-7.050 2.492 0-1.312-0.001-2.623 0.001-3.934 1.701-0.6 3.478-0.964 5.267-1.171z"></path>
<path d="M37.619 28.294c0.513-0.064 1.050 0.167 1.357 0.585 0.336 0.432 0.397 1.055 0.16 1.548-0.24 0.512-0.787 0.87-1.354 0.852-0.522 0.012-1.027-0.294-1.284-0.746-0.232-0.398-0.26-0.908-0.080-1.332 0.202-0.489 0.678-0.846 1.201-0.906zM37.508 28.569c-0.287 0.066-0.548 0.241-0.72 0.481-0.206 0.283-0.284 0.658-0.206 1.001 0.066 0.319 0.266 0.603 0.537 0.779 0.417 0.275 1.001 0.26 1.399-0.042 0.411-0.292 0.607-0.853 0.465-1.338-0.087-0.328-0.321-0.608-0.615-0.771-0.261-0.139-0.573-0.179-0.86-0.11z"></path>
<path d="M37.152 28.921c0.268-0.002 0.536-0 0.804-0.001 0.151 0.002 0.318 0.038 0.426 0.155 0.108 0.122 0.117 0.301 0.087 0.454-0.017 0.101-0.106 0.161-0.17 0.232 0.056 0.050 0.128 0.097 0.141 0.178 0.031 0.156-0.002 0.319 0.048 0.471 0.031 0.054 0.063 0.108 0.065 0.172-0.111 0.003-0.222 0.001-0.333 0.003-0.075-0.177-0.019-0.376-0.066-0.558-0.018-0.074-0.095-0.121-0.168-0.118-0.181-0.007-0.363-0.002-0.543-0.002-0.003 0.226 0.006 0.453-0.006 0.679-0.094-0.002-0.189-0.002-0.284 0-0.005-0.556-0.002-1.11-0.002-1.665zM37.443 29.184c0 0.153 0 0.306 0 0.46 0.162 0.001 0.324 0.002 0.486 0.001 0.080-0.001 0.174-0.016 0.226-0.084 0.055-0.087 0.054-0.204 0.004-0.293-0.042-0.070-0.13-0.077-0.203-0.081-0.172-0.005-0.343-0.002-0.515-0.002z"></path>
</symbol>
<symbol id="icon-cd" viewBox="0 0 32 32">
<path d="M31.238 16c0-8.416-6.822-15.238-15.238-15.238s-15.238 6.822-15.238 15.238c0 8.416 6.822 15.238 15.238 15.238s15.238-6.822 15.238-15.238zM19.429 16c0 1.893-1.535 3.429-3.429 3.429s-3.429-1.535-3.429-3.429c0-1.894 1.535-3.429 3.429-3.429s3.429 1.535 3.429 3.429z"></path>
</symbol>
<symbol id="icon-cross" viewBox="0 0 140 32">
<path stroke-linejoin="miter" stroke-linecap="butt" stroke-miterlimit="4" stroke-width="1.5238" d="M138.667 1.953l-137.143 28.373"></path>
<path stroke-linejoin="miter" stroke-linecap="butt" stroke-miterlimit="4" stroke-width="1.5238" d="M138.505 30.755l-136.819-29.231"></path>
</symbol>
<symbol id="icon-facebook" viewBox="0 0 32 32">
<path d="M5.843 0c-3.237 0-5.843 2.606-5.843 5.843v20.314c0 3.237 2.606 5.843 5.843 5.843h11.010v-12.51h-3.308v-4.504h3.308v-3.848c0-3.023 1.955-5.799 6.457-5.799 1.823 0 3.171 0.175 3.171 0.175l-0.106 4.206c0 0-1.375-0.013-2.875-0.013-1.624 0-1.884 0.748-1.884 1.99v3.289h4.888l-0.213 4.504h-4.675v12.51h4.541c3.237 0 5.843-2.606 5.843-5.843v-20.314c0-3.237-2.606-5.843-5.843-5.843l-20.314-0z"></path>
</symbol>
<symbol id="icon-files" viewBox="0 0 32 32">
<path d="M19.048 0.762h-15.238c-1.691 0-3.048 1.371-3.048 3.048v15.238h3.048v-15.238h15.238v-3.048zM25.143 6.857h-15.238c-1.691 0-3.048 1.371-3.048 3.048v15.238h3.048v-15.238h15.238v-3.048zM28.19 12.952h-12.19c-1.691 0-3.048 1.371-3.048 3.048v12.19c0 1.676 1.356 3.048 3.048 3.048h12.19c1.676 0 3.048-1.371 3.048-3.048v-12.19c0-1.676-1.371-3.048-3.048-3.048z"></path>
</symbol>
<symbol id="icon-hp" viewBox="0 0 32 32">
<path d="M16 32c-0.159 0-0.317-0.003-0.476-0.007l3.27-8.987h4.5c0.79 0 1.657-0.607 1.927-1.349l3.547-9.744c0.58-1.595-0.333-2.901-2.031-2.901h-6.243l-5.238 14.394h-0.002l-2.97 8.159c-7.045-1.675-12.285-8.008-12.285-15.566 0-7.34 4.942-13.524 11.68-15.409l-8.159 22.415 3.391 0 4.332-11.891h2.549l-4.332 11.891 3.39 0.001 4.037-11.094c0.581-1.595-0.333-2.901-2.029-2.901h-2.85l3.273-8.996c0.239-0.011 0.478-0.017 0.719-0.017 8.837 0 16 7.163 16 16s-7.163 16-16 16h0zM25.681 11.107h-2.548l-3.568 9.789h2.548l3.568-9.789z"></path>
</symbol>
<symbol id="icon-images" viewBox="0 0 32 32">
<path d="M31.238 22.095v-18.286c0-1.676-1.371-3.048-3.048-3.048h-18.286c-1.676 0-3.048 1.371-3.048 3.048v18.286c0 1.676 1.371 3.048 3.048 3.048h18.286c1.676 0 3.048-1.371 3.048-3.048zM14.476 16l3.093 4.13 4.526-5.653 6.095 7.619h-18.286l4.571-6.095zM0.762 6.857v21.333c0 1.676 1.371 3.048 3.048 3.048h21.333v-3.048h-21.333v-21.333h-3.048z"></path>
</symbol>
<symbol id="icon-instagram" viewBox="0 0 32 32">
<path d="M16 12.19c-0.754 0-1.49 0.224-2.116 0.643s-1.114 1.014-1.403 1.71c-0.288 0.696-0.363 1.462-0.216 2.201s0.51 1.418 1.043 1.95 1.212 0.895 1.951 1.042c0.739 0.147 1.505 0.071 2.201-0.217s1.291-0.777 1.71-1.403c0.419-0.627 0.642-1.363 0.642-2.117-0.001-1.010-0.403-1.979-1.117-2.694s-1.684-1.116-2.694-1.116zM24.908 9.261c-0.194-0.492-0.487-0.938-0.86-1.312s-0.82-0.667-1.312-0.861c-1.5-0.592-5.071-0.459-6.736-0.459s-5.232-0.138-6.736 0.459c-0.492 0.194-0.938 0.487-1.312 0.861s-0.667 0.82-0.861 1.312c-0.591 1.5-0.459 5.075-0.459 6.738s-0.132 5.234 0.462 6.739c0.194 0.492 0.487 0.938 0.861 1.312s0.82 0.667 1.312 0.86c1.5 0.592 5.071 0.459 6.736 0.459s5.231 0.138 6.736-0.459c0.492-0.194 0.938-0.487 1.312-0.86s0.667-0.82 0.86-1.312c0.596-1.5 0.459-5.075 0.459-6.738s0.137-5.233-0.459-6.738l-0.003-0.001zM16 21.857c-1.158 0-2.291-0.344-3.254-0.987s-1.714-1.558-2.157-2.629c-0.443-1.070-0.559-2.248-0.333-3.384s0.784-2.18 1.603-2.999c0.819-0.819 1.863-1.377 2.999-1.603s2.314-0.11 3.384 0.333c1.070 0.443 1.985 1.194 2.629 2.157s0.987 2.096 0.987 3.254c0.001 0.769-0.15 1.532-0.444 2.243s-0.725 1.357-1.27 1.901c-0.544 0.544-1.19 0.975-1.901 1.27s-1.473 0.445-2.243 0.444zM22.099 11.264c-0.27 0-0.535-0.080-0.76-0.23s-0.4-0.364-0.504-0.613-0.131-0.525-0.078-0.79c0.053-0.265 0.183-0.509 0.374-0.7s0.435-0.322 0.7-0.374c0.265-0.053 0.54-0.026 0.79 0.078s0.463 0.279 0.614 0.504 0.23 0.489 0.23 0.76c0.001 0.18-0.034 0.358-0.102 0.524s-0.169 0.317-0.295 0.444c-0.127 0.127-0.277 0.228-0.443 0.297s-0.344 0.105-0.523 0.105l-0.003-0.003zM28.571 0h-25.143c-0.909 0-1.781 0.361-2.424 1.004s-1.004 1.515-1.004 2.424v25.143c0 0.909 0.361 1.781 1.004 2.424s1.515 1.004 2.424 1.004h25.143c0.909 0 1.781-0.361 2.424-1.004s1.004-1.515 1.004-2.424v-25.143c0-0.909-0.361-1.781-1.004-2.424s-1.515-1.004-2.424-1.004zM27.349 20.714c-0.092 1.831-0.51 3.453-1.846 4.786s-2.957 1.759-4.786 1.846c-1.887 0.106-7.542 0.106-9.429 0-1.831-0.092-3.447-0.511-4.786-1.846s-1.759-2.959-1.846-4.786c-0.106-1.887-0.106-7.544 0-9.428 0.092-1.831 0.505-3.453 1.846-4.786s2.962-1.754 4.786-1.841c1.886-0.106 7.542-0.106 9.429 0 1.831 0.092 3.452 0.511 4.786 1.846s1.759 2.959 1.846 4.789c0.106 1.88 0.106 7.531 0 9.42z"></path>
</symbol>
<symbol id="icon-note" viewBox="0 0 32 32">
<path d="M28.444 0h-24.889c-1.973 0-3.556 1.6-3.556 3.556v24.889c0 1.956 1.582 3.556 3.556 3.556h24.889c1.956 0 3.556-1.6 3.556-3.556v-24.889c0-1.956-1.582-3.556-3.556-3.556zM28.444 28.444h-24.889v-21.333h24.889v21.333zM24.889 16h-17.778v-3.556h17.778v3.556zM17.778 23.111h-10.667v-3.555h10.667v3.555z"></path>
</symbol>
<symbol id="icon-palette" viewBox="0 0 32 32">
<path d="M16 4c-6.627 0-12 5.373-12 12s5.373 12 12 12c1.107 0 2-0.893 2-2 0-0.52-0.2-0.987-0.52-1.347-0.307-0.347-0.507-0.813-0.507-1.32 0-1.107 0.893-2 2-2h2.36c3.68 0 6.667-2.987 6.667-6.667 0-5.893-5.373-10.667-12-10.667zM8.667 16c-1.107 0-2-0.893-2-2s0.893-2 2-2c1.107 0 2 0.893 2 2s-0.893 2-2 2zM12.667 10.667c-1.107 0-2-0.893-2-2s0.893-2 2-2c1.107 0 2 0.893 2 2s-0.893 2-2 2zM19.333 10.667c-1.107 0-2-0.893-2-2s0.893-2 2-2c1.107 0 2 0.893 2 2s-0.893 2-2 2zM23.333 16c-1.107 0-2-0.893-2-2s0.893-2 2-2c1.107 0 2 0.893 2 2s-0.893 2-2 2z"></path>
</symbol>
<symbol id="icon-pc" viewBox="0 0 55 32">
<path d="M2.236 1.659h14.801c1.631 0 3.075 0.323 4.332 0.968 1.257 0.619 2.233 1.52 2.928 2.703 0.695 1.157 1.043 2.488 1.043 3.994v3.752c0 1.56-0.361 2.945-1.083 4.156-0.722 1.183-1.738 2.111-3.048 2.784-1.284 0.645-2.781 0.968-4.493 0.968h-8.945v8.917h-5.535v-28.243zM16.636 16.143c0.936 0 1.698-0.296 2.286-0.888 0.588-0.619 0.883-1.426 0.883-2.421v-3.268c0-0.941-0.267-1.681-0.802-2.219-0.508-0.565-1.19-0.847-2.046-0.847h-9.186v9.643h8.865z"></path>
<path d="M37.95 30.224c-2.059 0-3.877-0.444-5.455-1.331-1.551-0.888-2.754-2.138-3.61-3.752-0.856-1.641-1.284-3.524-1.284-5.649v-7.424c0-2.125 0.428-3.994 1.284-5.608 0.883-1.641 2.113-2.905 3.69-3.793 1.604-0.888 3.45-1.331 5.535-1.331h4.252c2.006 0 3.77 0.43 5.295 1.291s2.701 2.071 3.53 3.631c0.856 1.533 1.284 3.322 1.284 5.366h-5.455c0-1.614-0.428-2.905-1.284-3.873-0.856-0.995-1.979-1.493-3.369-1.493h-4.252c-1.498 0-2.701 0.565-3.61 1.695-0.909 1.103-1.364 2.555-1.364 4.357v6.94c0 1.802 0.441 3.268 1.324 4.398 0.883 1.103 2.046 1.654 3.49 1.654h4.332c1.417 0 2.567-0.551 3.45-1.654 0.909-1.103 1.364-2.555 1.364-4.357h5.455c0 2.179-0.428 4.102-1.284 5.77-0.856 1.641-2.059 2.918-3.61 3.833-1.551 0.888-3.343 1.331-5.375 1.331h-4.332z"></path>
</symbol>
<symbol id="icon-promotion" viewBox="0 0 32 32">
<path stroke-linejoin="miter" stroke-linecap="butt" stroke-miterlimit="4" stroke-width="0.9697" d="M27.968 11.706l-0.018 0.2 0.128 0.154 3.29 3.941-3.418 4.094 0.018 0.2 0.458 5.206-5.049 1.201-2.636 4.66-4.742-2.133-4.741 2.147-2.635-4.659-5.049-1.202 0.475-5.42-3.418-4.095 3.418-4.11-0.017-0.199-0.458-5.22 5.049-1.187 2.636-4.661 4.741 2.133 4.741-2.133 2.636 4.675 5.049 1.202-0.458 5.206z"></path>
<path d="M13.165 21.839l-1.414-1.414c-0.566-0.566-1.131-0.566-1.697 0l-1.311 1.311 0.566 0.566 1.311-1.311c0.189-0.189 0.375-0.19 0.561-0.005l0.005 0.005-0.987 0.987c-0.473 0.473-0.478 0.941-0.015 1.404 0.48 0.48 0.957 0.483 1.43 0.010l1.553-1.553zM10.758 22.826c-0.093-0.093-0.091-0.187 0.005-0.283l0.987-0.987 0.283 0.283-0.987 0.987c-0.096 0.096-0.192 0.096-0.288 0zM16.019 18.984l-0.807 0.807-1.738 0.041-0.283 0.283 0.849 0.849-0.566 0.566-2.263-2.263 0.566-0.566 0.849 0.849 0.283-0.283 0.046-1.743 0.802-0.802-0.026 2.288 2.288-0.026zM15.609 14.868l1.697 1.697-0.849 0.849c-0.189 0.189-0.377 0.189-0.566 0l-1.414-1.414-0.566 0.566 1.414 1.414c0.566 0.566 1.131 0.566 1.697 0l1.131-1.131 0.566 0.566 0.591-0.591-1.131-1.131-0.309 0.309-1.697-1.697-0.566 0.566zM21.165 13.838l-0.566 0.566-0.242-0.242c-0.096 0.487-0.281 0.867-0.555 1.142-0.566 0.566-1.131 0.566-1.697 0l-1.466-1.466 0.566-0.566 1.466 1.466c0.185 0.185 0.374 0.185 0.566 0 0.329-0.425 0.432-0.888 0.309-1.389l-1.209-1.208 0.566-0.566 2.263 2.263zM19.931 11.987c-0.48-0.48-0.483-0.957-0.010-1.43l1.553-1.553 2.263 2.263-0.566 0.566-0.849-0.849-0.252 0.252 0.139 1.558-0.735 0.735-0.139-1.558c-0.473 0.473-0.941 0.478-1.404 0.015zM21.473 10.136l-0.987 0.987c-0.096 0.096-0.093 0.195 0.010 0.298 0.086 0.086 0.177 0.081 0.273-0.015l0.987-0.987-0.283-0.283z"></path>
</symbol>
<symbol id="icon-stadia" viewBox="0 0 36 32">
<path d="M5.593 5.144c-0.138 0.102-0.215 0.263-0.215 0.429v0.007c0.001 0.070 0.015 0.141 0.044 0.209l2.454 5.734c0.109 0.254 0.389 0.379 0.643 0.286 1.607-0.591 7.17-2.461 10.771-1.452 0 0-3.612 0.216-6.878 2.857-0.184 0.149-0.245 0.409-0.151 0.629 0.265 0.618 0.797 1.86 1.099 2.562l0.423 1.024c0.101 0.243 0.422 0.272 0.564 0.052 0.762-1.184 2.047-1.775 3.281-2.291 1.264-0.528 2.584-0.923 3.93-1.157 1.434-0.25 2.899-0.317 4.348-0.185 0.241 0.022 0.465-0.131 0.537-0.369l1.109-3.654c0.065-0.216-0.010-0.452-0.188-0.585-1.236-0.924-6.133-4.026-14.743-2.78 0 0 7.348-4.354 16.676 0.429 0.283 0.145 0.624-0.007 0.718-0.317l0.977-3.223c0.015-0.050 0.023-0.101 0.023-0.15v-0.015c-0.003-0.183-0.098-0.358-0.26-0.452-1.171-0.683-5.135-2.731-10.587-2.731-4.179-0-9.233 1.202-14.575 5.144z"></path>
<path d="M10.304 31.533h-0.885c-0.067 0-0.131-0.027-0.178-0.076s-0.074-0.115-0.074-0.184v-5.29h-2.168c-0.139-0.001-0.251-0.117-0.251-0.261v-0.819c0-0.144 0.113-0.26 0.252-0.26h5.725c0.139 0 0.252 0.117 0.252 0.26v0.819c0 0.144-0.113 0.261-0.252 0.261h-2.169v5.29c0 0.069-0.027 0.135-0.074 0.184s-0.111 0.076-0.178 0.076zM6.166 31.033c0.324-0.335 0.457-0.762 0.457-1.472v-0.181c0-0.711-0.133-1.136-0.457-1.472-0.344-0.356-0.8-0.501-1.571-0.501h-2.803c-0.111 0-0.218-0.046-0.297-0.127s-0.123-0.192-0.123-0.307v-0.557c0-0.24 0.188-0.434 0.42-0.434h4.012c0.139 0 0.252-0.117 0.252-0.261v-0.819c0-0.144-0.113-0.26-0.252-0.26h-3.776c-0.772 0-1.227 0.145-1.572 0.501-0.325 0.335-0.457 0.762-0.457 1.472v0.143c0 0.712 0.132 1.137 0.457 1.472 0.344 0.356 0.8 0.501 1.572 0.501h2.813c0.232 0 0.42 0.194 0.42 0.434v0.595c0 0.24-0.188 0.434-0.42 0.434h-4.226c-0.139 0-0.252 0.117-0.252 0.26v0.819c0 0.069 0.027 0.135 0.074 0.184s0.111 0.076 0.178 0.076h3.98c0.771 0 1.226-0.145 1.57-0.5zM26.195 28.068v0.047c0 1.328-0.204 2.009-0.779 2.603-0.531 0.548-1.321 0.823-2.353 0.823h-3.054c-0.139 0-0.252-0.117-0.252-0.26v-6.378c0-0.144 0.113-0.26 0.252-0.26h3.055c1.033 0 1.824 0.277 2.353 0.823 0.575 0.594 0.777 1.276 0.777 2.604zM24.806 28.068c0-0.884-0.054-1.309-0.39-1.655-0.274-0.284-0.717-0.421-1.353-0.421h-1.917v4.2h1.918c0.637 0 1.079-0.138 1.353-0.421 0.335-0.346 0.39-0.772 0.39-1.655l-0.001-0.047zM28.448 31.272v-6.37c0-0.144-0.113-0.26-0.252-0.26h-0.884c-0.139 0-0.252 0.117-0.252 0.26v6.37c0 0.144 0.113 0.26 0.252 0.26h0.885c0.067 0 0.131-0.027 0.178-0.076s0.074-0.115 0.074-0.184h-0.001zM18.943 31.533h-0.936c-0.131-0-0.251-0.079-0.306-0.202l-0.431-0.963h-3.475l-0.431 0.964c-0.055 0.122-0.173 0.201-0.303 0.202h-0.941c-0.087 0-0.167-0.046-0.214-0.122s-0.051-0.171-0.014-0.252l2.843-6.117c0.149-0.314 0.457-0.514 0.796-0.514s0.648 0.199 0.796 0.514l2.843 6.116c0.038 0.081 0.033 0.176-0.013 0.252s-0.127 0.122-0.214 0.122h-0.001zM14.363 29.091h2.342l-1.168-2.753-1.173 2.753zM36.14 31.533h-0.938c-0.131 0-0.251-0.079-0.306-0.202l-0.43-0.963h-3.475l-0.431 0.964c-0.055 0.122-0.173 0.201-0.303 0.202h-0.941c-0.087 0-0.167-0.046-0.214-0.122s-0.051-0.171-0.014-0.252l2.843-6.117c0.148-0.315 0.457-0.514 0.796-0.514s0.648 0.2 0.796 0.514l2.843 6.116c0.038 0.081 0.033 0.176-0.013 0.252s-0.127 0.122-0.214 0.122v0zM31.558 29.091h2.342l-1.168-2.753-1.174 2.753z"></path>
</symbol>
<symbol id="icon-stars" viewBox="0 0 32 32">
<path d="M25.333 12l1.667-3.667 3.667-1.667-3.667-1.667-1.667-3.667-1.667 3.667-3.667 1.667 3.667 1.667 1.667 3.667zM15.333 12.667l-3.333-7.333-3.333 7.333-7.333 3.333 7.333 3.333 3.333 7.333 3.333-7.333 7.333-3.333-7.333-3.333zM25.333 20l-1.667 3.667-3.667 1.667 3.667 1.667 1.667 3.667 1.667-3.667 3.667-1.667-3.667-1.667-1.667-3.667z"></path>
</symbol>
<symbol id="icon-twitch" viewBox="0 0 31 32">
<path d="M2.124-0.005l-2.128 5.493v22.45h7.564v4.057h4.255l4.015-4.057h6.15l8.271-8.357v-19.586h-28.127zM27.416 18.145l-4.729 4.779h-7.564l-4.015 4.057v-4.057h-6.383v-20.064h22.691v15.286zM22.687 8.352v8.35h-2.835v-8.35h2.835zM15.123 8.352v8.35h-2.835v-8.35h2.835z"></path>
</symbol>
<symbol id="icon-twitter" viewBox="0 0 32 32">
<path d="M28.571 0h-25.143c-1.893 0-3.429 1.536-3.429 3.429v25.143c0 1.893 1.536 3.429 3.429 3.429h25.143c1.893 0 3.429-1.536 3.429-3.429v-25.143c0-1.893-1.536-3.429-3.429-3.429zM25.079 11.343c0.014 0.2 0.014 0.407 0.014 0.607 0 6.193-4.714 13.329-13.329 13.329-2.657 0-5.121-0.772-7.193-2.1 0.379 0.043 0.743 0.057 1.129 0.057 2.193 0 4.207-0.743 5.814-2-2.057-0.043-3.786-1.393-4.379-3.25 0.721 0.107 1.371 0.107 2.114-0.086-2.143-0.436-3.75-2.321-3.75-4.6v-0.057c0.621 0.35 1.35 0.564 2.114 0.593-0.643-0.427-1.169-1.007-1.533-1.688s-0.554-1.441-0.552-2.212c0-0.871 0.229-1.671 0.636-2.364 2.307 2.843 5.771 4.7 9.657 4.9-0.664-3.179 1.714-5.757 4.571-5.757 1.35 0 2.564 0.564 3.421 1.479 1.057-0.2 2.071-0.593 2.971-1.129-0.35 1.086-1.086 2-2.057 2.579 0.943-0.1 1.857-0.364 2.7-0.729-0.636 0.936-1.436 1.764-2.35 2.429z"></path>
</symbol>
<symbol id="icon-vk" viewBox="0 0 32 32">
<path d="M20.912 0h-9.824c-8.965 0-11.088 2.123-11.088 11.088v9.824c0 8.965 2.123 11.088 11.088 11.088h9.824c8.965 0 11.088-2.123 11.088-11.088v-9.824c0-8.965-2.145-11.088-11.088-11.088zM25.835 22.831h-2.325c-0.88 0-1.152-0.7-2.733-2.303-1.377-1.333-1.987-1.513-2.325-1.513-0.475 0-0.611 0.136-0.611 0.791v2.1c0 0.565-0.18 0.904-1.671 0.904-2.461 0-5.195-1.491-7.113-4.269-2.891-4.064-3.683-7.113-3.683-7.745 0-0.339 0.136-0.655 0.791-0.655h2.325c0.587 0 0.813 0.271 1.040 0.903 1.151 3.32 3.071 6.233 3.861 6.233 0.293 0 0.429-0.136 0.429-0.88v-3.435c-0.091-1.581-0.927-1.716-0.927-2.28 0-0.272 0.227-0.543 0.587-0.543h3.659c0.497 0 0.677 0.271 0.677 0.857v4.631c0 0.496 0.227 0.677 0.361 0.677 0.293 0 0.543-0.181 1.084-0.723 1.672-1.875 2.868-4.765 2.868-4.765 0.159-0.339 0.429-0.655 1.017-0.655h2.325c0.7 0 0.859 0.36 0.7 0.857-0.293 1.356-3.139 5.375-3.139 5.375-0.248 0.407-0.339 0.587 0 1.040 0.248 0.339 1.061 1.039 1.604 1.671 0.993 1.129 1.76 2.077 1.964 2.733 0.227 0.653-0.113 0.992-0.768 0.992l0.001 0.001z"></path>
</symbol>
<symbol id="icon-xbox-one" viewBox="0 0 158 32">
<path d="M101.227 25.52l-6.039-8.134-6.033 8.134h-2.486l7.261-9.828-6.631-8.934h2.485l5.404 7.286 5.403-7.286h2.484l-6.627 8.932 7.262 9.83h-2.484zM54.165 25.517l-7.269-9.826 6.631-8.932h-2.485l-5.405 7.288-5.4-7.288h-2.479l6.628 8.932-7.267 9.826h2.489l6.033-8.131 6.038 8.131h2.487z"></path>
<path d="M67.986 16.401c-0.374-0.317-0.792-0.58-1.239-0.783 0.687-0.362 1.262-0.903 1.662-1.565s0.612-1.42 0.611-2.192c0-1.2-0.446-5.104-6.145-5.104h-7.677v8.088h-2.557c-0.331 0.429-1.085 1.46-1.372 1.883h3.929v8.789l7.678 0.002c4.159 0 6.742-2.095 6.742-5.477 0-1.477-0.562-2.731-1.632-3.64zM57.32 8.715h5.556c1.503 0 4.021 0.372 4.021 2.981 0 1.973-1.466 3.149-4.021 3.149h-5.556v-6.13zM62.874 23.561h-5.556v-6.829h5.556c2.106 0 4.626 0.577 4.626 3.267 0 3.098-2.898 3.561-4.626 3.561zM79.604 6.326c-5.31 0-9.022 4.030-9.022 9.802 0 5.78 3.711 9.807 9.022 9.807 5.305 0 9.007-4.027 9.007-9.807 0-5.772-3.702-9.802-9.007-9.802zM79.604 23.95c-4.046 0-6.881-3.218-6.881-7.822s2.835-7.82 6.881-7.82c4.040 0 6.858 3.216 6.858 7.82s-2.818 7.822-6.858 7.822zM4.708 4.751l-0.015 0.013v0.002c-1.487 1.453-2.667 3.185-3.472 5.095s-1.218 3.961-1.215 6.032c-0.005 3.423 1.127 6.752 3.221 9.473 0.022 0.026 0.055 0.041 0.084 0.026 0.028-0.016 0.030-0.051 0.018-0.081-1.201-3.687 4.939-12.622 8.112-16.367 0.010-0.013 0.023-0.028 0.023-0.046 0-0.021-0.015-0.038-0.030-0.051-5.337-5.272-6.762-4.066-6.742-4.083l0.015-0.013zM26.821 4.751l0.015 0.013v0.002c1.487 1.453 2.667 3.185 3.471 5.096s1.217 3.961 1.214 6.032c0.005 3.423-1.127 6.752-3.221 9.473-0.020 0.026-0.055 0.041-0.084 0.026-0.027-0.016-0.028-0.051-0.018-0.081 1.201-3.687-4.934-12.628-8.106-16.376-0.012-0.013-0.023-0.028-0.023-0.044 0-0.023 0.013-0.039 0.030-0.053 5.339-5.272 6.754-4.058 6.735-4.075l-0.013-0.013zM15.765 0.253c3.18 0 5.796 0.865 8.208 2.289 0.030 0.015 0.038 0.048 0.026 0.077-0.012 0.028-0.045 0.035-0.076 0.026-3.050-0.654-7.688 1.962-8.126 2.223-0.010 0.007-0.020 0.013-0.033 0.013-0.015 0-0.025-0.007-0.035-0.013-1.163-0.663-5.45-2.892-8.149-2.207-0.030 0.007-0.063 0.002-0.076-0.028-0.006-0.014-0.006-0.029-0.001-0.044s0.015-0.026 0.028-0.034c2.412-1.439 5.062-2.304 8.233-2.304zM15.765 12.796c0.018 0 0.038 0.015 0.050 0.025 4.716 3.558 12.786 12.355 10.323 14.843l0.003-0.003-0.002 0.003h-0.003c-2.868 2.498-6.556 3.874-10.372 3.869-3.817 0.005-7.505-1.371-10.374-3.869v0c-2.459-2.488 5.61-11.285 10.321-14.843 0.013-0.010 0.035-0.025 0.055-0.025zM140.398 6.758v15.396l-11.428-15.407-1.874-0.003v18.745h2.104v-15.055l11.195 15.067 2.109 0.003v-18.745h-2.106zM116.172 6.323c-5.311 0-9.024 4.032-9.024 9.802 0 5.78 3.713 9.813 9.024 9.813 5.305 0 9.006-4.034 9.006-9.813 0-5.768-3.701-9.802-9.006-9.802zM116.172 23.95c-4.046 0-6.882-3.218-6.882-7.825 0-4.602 2.836-7.82 6.882-7.82 4.039 0 6.858 3.218 6.858 7.82 0 4.607-2.819 7.825-6.858 7.825zM146.982 23.668v-6.936h10.401v-1.835h-10.401v-6.319h11.107v-1.833h-13.222v18.758h13.353v-1.835h-11.237z"></path>
</symbol>
<symbol id="icon-youtube" viewBox="0 0 32 32">
<path d="M25.235 23.876h-1.648l0.008-0.964c0-0.429 0.349-0.779 0.776-0.779h0.105c0.428 0 0.778 0.351 0.778 0.779l-0.019 0.964zM19.055 21.809c-0.418 0-0.76 0.283-0.76 0.63v4.691c0 0.346 0.342 0.628 0.76 0.628 0.42 0 0.762-0.282 0.762-0.628v-4.691c0-0.347-0.342-0.63-0.762-0.63zM29.091 19.185v8.923c0 2.14-1.842 3.892-4.093 3.892h-16.832c-2.252 0-4.093-1.751-4.093-3.892v-8.923c0-2.14 1.841-3.892 4.093-3.892h16.832c2.251 0 4.093 1.752 4.093 3.892zM9.289 29.077l-0.001-9.399 2.087 0.001v-1.393l-5.562-0.008v1.369l1.736 0.005v9.426h1.741zM15.543 21.078h-1.74v5.019c0 0.726 0.044 1.089-0.003 1.217-0.141 0.389-0.777 0.802-1.025 0.042-0.042-0.133-0.005-0.535-0.006-1.225l-0.007-5.054h-1.73l0.005 4.974c0.001 0.762-0.017 1.331 0.006 1.59 0.042 0.456 0.027 0.988 0.447 1.292 0.783 0.568 2.283-0.085 2.658-0.897l-0.003 1.036 1.397 0.002v-7.997h-0zM21.108 26.826l-0.004-4.177c-0.001-1.592-1.183-2.546-2.788-1.258l0.007-3.106-1.738 0.003-0.008 10.72 1.429-0.021 0.13-0.668c1.827 1.689 2.974 0.532 2.972-1.493zM26.553 26.272l-1.305 0.007c-0.001 0.052-0.002 0.112-0.003 0.178v0.733c0 0.392-0.322 0.712-0.713 0.712h-0.256c-0.392 0-0.713-0.32-0.713-0.712v-1.929h2.987v-1.133c0-0.828-0.021-1.656-0.089-2.129-0.214-1.497-2.299-1.735-3.353-0.968-0.331 0.239-0.583 0.56-0.73 0.99-0.148 0.431-0.222 1.019-0.222 1.766v2.491c0 4.141 4.991 3.556 4.396-0.006zM19.862 12.749c0.090 0.22 0.229 0.398 0.418 0.532 0.187 0.132 0.426 0.199 0.712 0.199 0.251 0 0.473-0.068 0.666-0.209s0.355-0.35 0.488-0.629l-0.033 0.688h1.939v-8.31h-1.526v6.468c0 0.35-0.286 0.637-0.636 0.637-0.348 0-0.635-0.287-0.635-0.637v-6.468h-1.593v5.605c0 0.714 0.013 1.19 0.034 1.431 0.022 0.24 0.077 0.47 0.166 0.692zM13.986 8.055c0-0.798 0.066-1.421 0.197-1.87 0.132-0.447 0.369-0.807 0.713-1.078 0.342-0.273 0.781-0.409 1.315-0.409 0.449 0 0.833 0.089 1.154 0.263 0.323 0.175 0.571 0.402 0.744 0.682 0.176 0.281 0.295 0.57 0.359 0.865 0.065 0.3 0.097 0.751 0.097 1.361v2.102c0 0.771-0.031 1.338-0.090 1.698-0.059 0.361-0.186 0.696-0.382 1.010-0.194 0.311-0.444 0.543-0.746 0.691-0.306 0.15-0.657 0.223-1.052 0.223-0.442 0-0.814-0.062-1.121-0.19s-0.546-0.32-0.715-0.576c-0.171-0.256-0.292-0.568-0.364-0.932s-0.108-0.91-0.108-1.638v-2.2h0zM15.504 11.356c0 0.471 0.348 0.855 0.771 0.855s0.77-0.384 0.77-0.855v-4.424c0-0.47-0.346-0.854-0.77-0.854s-0.771 0.384-0.771 0.854v4.424zM10.138 13.59h1.829l0.002-6.374 2.162-5.46h-2.001l-1.149 4.055-1.165-4.067h-1.98l2.3 5.474 0.003 6.371z"></path>
</symbol>
</defs>
</svg>
